<?xml version="1.0" encoding="utf-8"?>
<!-- Generator: Adobe Illustrator 16.0.4, SVG Export Plug-In . SVG Version: 6.00 Build 0)  -->
<!DOCTYPE svg PUBLIC "-//W3C//DTD SVG 1.1//EN" "http://www.w3.org/Graphics/SVG/1.1/DTD/svg11.dtd">
<svg version="1.1" id="Layer_1" xmlns="http://www.w3.org/2000/svg" xmlns:xlink="http://www.w3.org/1999/xlink" x="0px" y="0px"
	 width="212.667px" height="46px" viewBox="0 0 212.667 46" enable-background="new 0 0 212.667 46" xml:space="preserve">
<g>
	<path fill="#333333" d="M65.906,23.964c0,1.306-0.419,2.403-1.254,3.345c-0.784,0.938-1.932,1.409-3.343,1.409
		c-1.41,0-2.508-0.471-3.343-1.463c-0.835-0.938-1.253-2.037-1.253-3.291c0-1.305,0.418-2.402,1.253-3.343
		c0.784-0.94,1.933-1.409,3.343-1.409c1.411,0,2.507,0.469,3.343,1.462C65.487,21.614,65.906,22.711,65.906,23.964 M69.927,30.756
		V15.712c0-2.351-0.783-4.389-2.402-6.007c-1.619-1.619-3.657-2.455-6.216-2.455c-1.097,0-2.142,0.156-3.134,0.417
		c-0.992,0.262-1.932,0.627-2.769,1.097c-0.469,0.262-0.679,0.628-0.679,1.098c0,0.209,0.052,0.366,0.104,0.47l0.679,1.202
		c0.262,0.47,0.575,0.679,0.888,0.679c0.157,0,0.366-0.053,0.574-0.156c0.68-0.366,1.359-0.627,2.038-0.836
		c0.679-0.157,1.411-0.262,2.298-0.262c1.411,0,2.507,0.471,3.343,1.463c0.835,0.94,1.254,2.036,1.254,3.291
		c0,0.312-0.104,0.521-0.314,0.626c-0.157,0.053-0.261,0.053-0.418,0c-1.201-0.574-2.455-0.836-3.865-0.836
		c-2.56,0-4.597,0.836-6.216,2.508c-1.62,1.671-2.403,3.656-2.403,5.954c0,2.352,0.783,4.389,2.403,6.008
		c1.619,1.619,3.656,2.455,6.216,2.455c0.993,0,1.88-0.104,2.611-0.365c0.68-0.209,1.359-0.471,1.934-0.836
		c0.261-0.209,0.522-0.158,0.73,0.209c0.157,0.312,0.47,0.469,0.836,0.469h1.358C69.562,31.902,69.927,31.538,69.927,30.756"/>
	<path fill="#333333" d="M89.516,23.966c0,1.304-0.419,2.401-1.255,3.341c-0.783,0.94-1.932,1.411-3.342,1.411
		s-2.508-0.471-3.343-1.463c-0.836-0.938-1.254-2.037-1.254-3.289v-8.254c0-1.306,0.418-2.403,1.254-3.344
		c0.783-0.939,1.933-1.41,3.343-1.41s2.508,0.471,3.342,1.463c0.836,0.94,1.255,2.036,1.255,3.291V23.966z M93.537,23.966v-8.254
		c0-2.351-0.784-4.389-2.402-6.007c-1.619-1.62-3.657-2.455-6.216-2.455c-2.56,0-4.597,0.835-6.216,2.507
		c-1.62,1.672-2.403,3.655-2.403,5.955v28.06c0,0.783,0.366,1.148,1.149,1.148h1.724c0.784,0,1.149-0.365,1.149-1.148V32.061
		c0-0.574,0.261-0.73,0.835-0.47c1.306,0.574,2.56,0.836,3.762,0.836c2.559,0,4.597-0.836,6.216-2.508
		C92.753,28.247,93.537,26.262,93.537,23.966"/>
	<path fill="#333333" d="M113.125,16.966c0,0.783-0.365,1.148-1.148,1.148h-6.895c-0.783,0-1.15-0.365-1.15-1.148v-1.254
		c0-1.306,0.419-2.403,1.254-3.344c0.783-0.939,1.934-1.41,3.344-1.41s2.508,0.471,3.344,1.463c0.834,0.94,1.254,2.036,1.254,3.291
		v1.254H113.125z M117.146,19.264v-3.552c0-2.351-0.783-4.389-2.402-6.007c-1.619-1.62-3.656-2.455-6.216-2.455
		c-2.561,0-4.598,0.835-6.216,2.507c-1.62,1.672-2.403,3.656-2.403,5.955v8.254c0,2.351,0.783,4.386,2.403,6.007
		c1.618,1.618,3.655,2.454,6.216,2.454c1.984,0,3.761-0.521,5.275-1.517c1.2-0.782,2.141-1.827,2.925-3.027
		c0.053-0.054,0.105-0.21,0.209-0.471V27.15c0-0.312-0.156-0.627-0.471-0.889l-1.147-0.836c-0.262-0.156-0.471-0.262-0.731-0.262
		c-0.365,0-0.627,0.156-0.836,0.471c-0.627,0.836-1.254,1.516-1.933,1.986c-0.991,0.729-2.09,1.096-3.291,1.096
		c-1.409,0-2.508-0.471-3.344-1.463c-0.835-0.939-1.254-2.037-1.254-3.289V22.71c0-0.783,0.367-1.149,1.15-1.149h9.768
		C116.363,21.562,117.146,20.778,117.146,19.264"/>
	<path fill="#333333" d="M140.757,30.756v-4.439c0-1.726-0.418-3.239-1.254-4.545c-0.784-1.305-1.935-2.298-3.396-3.029
		c-0.365-0.209-0.574-0.471-0.574-0.731c0-0.157,0.053-0.47,0.262-0.783l4.754-7.992c0.104-0.156,0.154-0.365,0.154-0.522
		c0-0.626-0.312-0.939-0.938-0.939h-1.827c-0.367,0-0.682,0.104-0.941,0.313c-0.261,0.208-0.521,0.47-0.729,0.835l-3.5,6.059
		c-0.209,0.366-0.419,0.575-0.627,0.575c-0.209,0-0.418-0.209-0.627-0.575l-3.5-6.059c-0.209-0.365-0.47-0.627-0.729-0.835
		c-0.263-0.209-0.576-0.313-0.941-0.313h-1.775c-0.679,0-0.992,0.313-0.992,0.939c0,0.157,0.053,0.366,0.156,0.522l4.754,7.992
		c0.208,0.313,0.262,0.574,0.262,0.731c0,0.312-0.209,0.574-0.576,0.783c-1.409,0.731-2.56,1.775-3.395,3.134
		c-0.836,1.307-1.254,2.819-1.254,4.44v4.439c0,0.782,0.366,1.146,1.148,1.146h1.725c0.783,0,1.148-0.364,1.148-1.146v-4.439
		c0-1.308,0.418-2.403,1.254-3.344c0.783-0.939,1.934-1.41,3.344-1.41s2.507,0.471,3.343,1.462c0.836,0.94,1.254,2.039,1.254,3.292
		v4.439c0,0.782,0.365,1.146,1.148,1.146h1.724C140.391,31.902,140.757,31.538,140.757,30.756"/>
	<path fill="#FFFFFF" d="M163.583,30.756V15.45c0-2.246-0.731-4.178-2.194-5.798c-1.464-1.619-3.345-2.402-5.642-2.402
		c-0.889,0-1.672,0.156-2.455,0.417c-0.731,0.262-1.412,0.574-2.09,0.94c-0.104,0.053-0.261,0.104-0.418,0.104
		c-0.262,0-0.471-0.104-0.627-0.365c-0.261-0.366-0.574-0.574-1.046-0.574c-0.78,0-1.2,0.365-1.2,1.148v21.835
		c0,0.782,0.42,1.147,1.307,1.147c0.783,0,1.148-0.365,1.148-1.147V15.45c0-1.619,0.471-2.977,1.463-4.178
		c0.991-1.149,2.299-1.725,3.918-1.725s2.924,0.575,3.918,1.775c0.99,1.15,1.461,2.508,1.461,4.127v15.306
		c0,0.782,0.418,1.147,1.308,1.147C163.216,31.902,163.583,31.538,163.583,30.756"/>
	<path fill="#FFFFFF" d="M184.735,16.547c0,1.516-0.782,2.299-2.297,2.299h-6.164c-1.517,0-2.299-0.783-2.299-2.299V15.45
		c0-1.619,0.471-2.977,1.463-4.179c0.993-1.149,2.299-1.724,3.918-1.724s2.925,0.574,3.917,1.775
		c0.993,1.15,1.462,2.508,1.462,4.127V16.547L184.735,16.547z M187.191,18.532V15.45c0-2.246-0.73-4.179-2.193-5.798
		c-1.463-1.619-3.344-2.402-5.642-2.402c-2.351,0-4.229,0.783-5.694,2.402c-1.408,1.619-2.141,3.552-2.141,5.798v8.776
		c0,2.244,0.73,4.178,2.193,5.797s3.344,2.402,5.642,2.402c1.672,0,3.134-0.419,4.388-1.254c0.991-0.679,1.776-1.515,2.352-2.611
		c0.104-0.209,0.156-0.418,0.156-0.574c0-0.471-0.156-0.783-0.521-1.045c-0.053,0-0.104-0.053-0.209-0.157
		c-0.105-0.052-0.21-0.052-0.365-0.052c-0.42,0-0.783,0.209-1.045,0.574c-0.574,0.836-1.148,1.463-1.724,1.881
		c-0.839,0.627-1.829,0.939-3.03,0.939c-1.619,0-2.925-0.574-3.918-1.775c-0.992-1.148-1.463-2.508-1.463-4.125v-1.1
		c0-1.515,0.783-2.298,2.299-2.298h8.619C186.408,20.83,187.191,20.047,187.191,18.532"/>
	<path fill="#FFFFFF" d="M210.75,28.718c-0.158-0.157-0.365-0.209-0.627-0.209c-0.365,0-0.731,0.157-1.149,0.47
		c-0.418,0.313-0.888,0.576-1.462,0.836c-0.522,0.209-1.149,0.313-1.829,0.313c-1.618,0-2.925-0.573-3.917-1.776
		c-0.993-1.147-1.463-2.506-1.463-4.127V12.056c0-1.516,0.783-2.299,2.299-2.299h5.379c0.784,0,1.148-0.313,1.148-0.993
		c0-0.678-0.364-0.992-1.148-0.992h-5.379c-1.516,0-2.299-0.782-2.299-2.298V2.026c0-0.784-0.418-1.149-1.307-1.149
		c-0.783,0-1.148,0.365-1.148,1.149v3.447c0,1.516-0.782,2.298-2.299,2.298h-0.783c-0.783,0-1.148,0.314-1.148,0.992
		c0,0.68,0.365,0.993,1.148,0.993h0.783c1.517,0,2.299,0.783,2.299,2.299v12.169c0,2.246,0.73,4.18,2.193,5.799
		s3.344,2.402,5.642,2.402c1.097,0,2.089-0.21,2.979-0.574c0.834-0.367,1.461-0.785,1.879-1.201
		c0.418-0.365,0.627-0.731,0.627-1.098C211.167,29.188,211.009,28.927,210.75,28.718"/>
	<path fill="#333333" d="M206.744,44.686c0.412,0.258,0.979,0.424,1.572,0.424c1.266,0,2.09-0.709,2.09-1.767
		c0-0.942-0.593-1.442-1.601-1.831c-0.837-0.348-1.276-0.631-1.276-1.275c0-0.567,0.413-1.071,1.2-1.071
		c0.619,0,1.019,0.22,1.235,0.375l0.232-0.504c-0.309-0.22-0.798-0.386-1.365-0.386c-1.199,0-1.91,0.785-1.91,1.676
		c0,0.748,0.556,1.303,1.574,1.689c0.889,0.361,1.303,0.723,1.303,1.405c0,0.646-0.465,1.172-1.443,1.172
		c-0.555,0-1.059-0.219-1.395-0.425L206.744,44.686z M198.566,44.98h0.62v-3.83c0-0.192,0.038-0.398,0.076-0.555
		c0.245-0.799,0.993-1.419,1.856-1.419c1.276,0,1.715,1.019,1.715,2.142v3.662h0.619v-3.715c0-2.32-1.572-2.617-2.166-2.617
		c-1.007,0-1.793,0.567-2.127,1.265h-0.025l-0.039-1.123h-0.581c0.04,0.491,0.052,0.917,0.052,1.483V44.98z M192.364,39.164
		c1.638,0,2.269,1.562,2.269,2.695c0,1.586-1.02,2.746-2.309,2.746c-1.264,0-2.256-1.16-2.256-2.707
		C190.068,40.57,190.776,39.164,192.364,39.164 M192.376,38.648c-1.535,0-2.928,1.175-2.928,3.287c0,1.938,1.237,3.188,2.838,3.188
		c1.379,0,2.965-0.993,2.965-3.303C195.251,39.939,194.091,38.648,192.376,38.648 M185.837,36.48c-0.283,0-0.502,0.26-0.502,0.543
		s0.192,0.528,0.477,0.528c0.322,0,0.518-0.245,0.518-0.528C186.328,36.729,186.123,36.48,185.837,36.48 M186.147,38.79h-0.619v6.19
		h0.619V38.79z M180.035,37.656v1.134h-1.045v0.504h1.045V43.2c0,0.633,0.104,1.161,0.387,1.483
		c0.232,0.297,0.606,0.438,1.059,0.438c0.373,0,0.657-0.063,0.863-0.155l-0.077-0.464c-0.154,0.052-0.388,0.089-0.708,0.089
		c-0.658,0-0.903-0.488-0.903-1.275v-4.022h1.767V38.79h-1.767v-1.366L180.035,37.656z M175.985,38.79h-0.618v3.856
		c0,0.244-0.052,0.489-0.117,0.683c-0.271,0.62-0.928,1.252-1.83,1.252c-1.226,0-1.639-0.968-1.639-2.308V38.79h-0.619v3.601
		c0,2.332,1.328,2.732,2.115,2.732c1.098,0,1.807-0.671,2.114-1.25h0.026l0.037,1.107h0.58c-0.037-0.478-0.051-0.967-0.051-1.51
		L175.985,38.79L175.985,38.79z M166.739,44.98h0.619v-9.156h-0.619V44.98z M160.537,39.164c1.637,0,2.269,1.562,2.269,2.695
		c0,1.586-1.019,2.746-2.308,2.746c-1.265,0-2.256-1.16-2.256-2.707C158.242,40.57,158.951,39.164,160.537,39.164 M160.548,38.648
		c-1.534,0-2.928,1.175-2.928,3.287c0,1.938,1.237,3.188,2.838,3.188c1.381,0,2.967-0.993,2.967-3.303
		C163.425,39.939,162.264,38.648,160.548,38.648 M151.109,44.686c0.413,0.258,0.98,0.424,1.573,0.424
		c1.264,0,2.088-0.709,2.088-1.767c0-0.942-0.592-1.442-1.599-1.831c-0.84-0.348-1.276-0.631-1.276-1.275
		c0-0.567,0.412-1.071,1.198-1.071c0.621,0,1.02,0.22,1.238,0.375l0.231-0.504c-0.31-0.22-0.8-0.386-1.366-0.386
		c-1.199,0-1.908,0.785-1.908,1.676c0,0.748,0.555,1.303,1.572,1.689c0.891,0.361,1.303,0.723,1.303,1.405
		c0,0.646-0.465,1.172-1.445,1.172c-0.553,0-1.057-0.219-1.393-0.425L151.109,44.686z M139.141,41.332
		c0.116-0.954,0.71-2.168,2.077-2.168c1.494,0,1.855,1.303,1.844,2.168H139.141z M143.681,41.82
		c0.025-0.116,0.025-0.205,0.025-0.372c0-0.892-0.388-2.8-2.41-2.8c-1.602,0-2.785,1.291-2.785,3.354
		c0,1.817,1.107,3.106,2.888,3.106c1.083,0,1.715-0.271,1.947-0.398l-0.155-0.479c-0.35,0.168-0.812,0.349-1.715,0.349
		c-1.29,0-2.359-0.787-2.359-2.761H143.681z M134.55,44.98h0.619v-9.156h-0.619V44.98z M130.423,36.48
		c-0.283,0-0.502,0.26-0.502,0.543s0.192,0.528,0.477,0.528c0.322,0,0.516-0.245,0.516-0.528
		C130.914,36.729,130.708,36.48,130.423,36.48 M130.733,38.79h-0.619v6.19h0.619V38.79z M121.86,41.355
		c0-0.219,0.039-0.385,0.078-0.541c0.296-1.031,1.16-1.65,2.062-1.65c1.406,0,2.181,1.251,2.181,2.671
		c0,1.61-0.812,2.771-2.229,2.771c-0.968,0-1.769-0.617-2.039-1.559c-0.037-0.156-0.052-0.311-0.052-0.451V41.355z M121.242,43.537
		c0,0.464-0.014,1.006-0.052,1.443h0.556l0.051-1.121h0.025c0.489,0.852,1.213,1.264,2.219,1.264c1.354,0,2.76-1.098,2.76-3.303
		c0-1.857-1.084-3.172-2.656-3.172c-1.084,0-1.846,0.502-2.257,1.304h-0.026v-4.128h-0.619V43.537L121.242,43.537z M115.052,39.164
		c1.637,0,2.27,1.562,2.27,2.695c0,1.586-1.02,2.746-2.309,2.746c-1.264,0-2.258-1.16-2.258-2.707
		C112.755,40.57,113.464,39.164,115.052,39.164 M115.064,38.648c-1.534,0-2.93,1.175-2.93,3.287c0,1.938,1.238,3.188,2.839,3.188
		c1.381,0,2.967-0.993,2.967-3.303C117.94,39.939,116.779,38.648,115.064,38.648 M100.351,44.98h0.619v-3.816
		c0-0.206,0.037-0.426,0.09-0.594c0.231-0.723,0.889-1.394,1.715-1.394c1.006,0,1.534,0.812,1.534,1.935v3.869h0.618v-3.974
		c0-0.218,0.053-0.425,0.104-0.604c0.245-0.657,0.851-1.226,1.625-1.226c1.07,0,1.612,0.825,1.612,2.218v3.586h0.619v-3.648
		c0-2.348-1.419-2.684-2.025-2.684c-0.658,0-1.07,0.181-1.471,0.516c-0.231,0.193-0.465,0.465-0.631,0.839h-0.026
		c-0.271-0.786-0.929-1.354-1.78-1.354c-1.019,0-1.611,0.528-2.012,1.237h-0.025l-0.039-1.097h-0.58
		c0.039,0.49,0.053,0.917,0.053,1.484V44.98L100.351,44.98z"/>
</g>
<g>
	<circle fill="#FFFFFF" cx="23.379" cy="23" r="22.379"/>
	<g>
		<path fill="#333333" d="M15.428,38.562c0-2.4,0.616-4.645,1.857-6.578c1.242-2.013,2.944-3.561,5.035-4.647
			c0.54-0.31,0.851-0.694,0.851-1.16c0-0.233-0.077-0.617-0.387-1.085l-7.045-11.844c-0.158-0.232-0.231-0.543-0.231-0.774
			c0-0.928,0.463-1.392,1.47-1.392h2.635c0.537,0,1,0.152,1.39,0.463c0.388,0.31,0.775,0.699,1.084,1.239l5.186,8.979
			c0.311,0.542,0.622,0.849,0.93,0.849c0.309,0,0.62-0.307,0.933-0.849l5.184-8.979c0.309-0.54,0.696-0.93,1.084-1.239
			c0.386-0.311,0.853-0.463,1.39-0.463h2.712c0.928,0,1.392,0.463,1.392,1.392c0,0.231-0.076,0.542-0.229,0.774l-7.047,11.844
			c-0.306,0.468-0.386,0.931-0.386,1.162c0,0.389,0.31,0.773,0.849,1.083c2.171,1.087,3.871,2.557,5.037,4.49
			c0.964,1.51,1.541,3.216,1.753,5.103c3.048-3.823,4.882-8.659,4.882-13.93c0-12.359-10.019-22.379-22.379-22.379
			C11.02,0.621,1,10.641,1,23c0,9.556,5.999,17.688,14.428,20.898V38.562z"/>
		<path fill="#333333" d="M35.01,38.567c0-1.862-0.622-3.485-1.861-4.88c-1.231-1.472-2.863-2.165-4.95-2.165
			c-2.086,0-3.794,0.693-4.951,2.086c-1.242,1.393-1.859,3.018-1.859,4.954v6.579c0,0.052-0.016,0.087-0.019,0.136
			c0.663,0.06,1.331,0.102,2.009,0.102c4.266,0,8.239-1.216,11.631-3.287V38.567z"/>
	</g>
</g>
</svg>
